<svg width="25" height="25" viewBox="0 0 25 25" fill="none" xmlns="http://www.w3.org/2000/svg">
<path d="M3.96802 3.06982H21.044C21.632 3.06982 22.1 3.53782 22.1 4.12582V21.2138C22.1 21.7898 21.632 22.2698 21.044 22.2698H16.148V14.8298H18.644L19.016 11.9378H16.148V10.0898C16.148 9.24982 16.388 8.67382 17.588 8.67382H19.124V6.08182C18.86 6.04582 17.948 5.97382 16.892 5.97382C14.672 5.97382 13.16 7.31782 13.16 9.80182V11.9378H10.652V14.8298H13.16V22.2698H3.96802C3.68684 22.2698 3.41699 22.159 3.21705 21.9613C3.0171 21.7636 2.90318 21.495 2.90002 21.2138V4.12582C2.90002 3.53782 3.38002 3.06982 3.96802 3.06982Z" fill="white"/>
</svg>
