<svg width="25" height="25" viewBox="0 0 25 25" fill="none" xmlns="http://www.w3.org/2000/svg">
<path d="M12.5 9.54571C10.7797 9.54571 9.37577 10.9496 9.37577 12.6699C9.37577 14.3902 10.7797 15.7941 12.5 15.7941C14.2203 15.7941 15.6242 14.3902 15.6242 12.6699C15.6242 10.9496 14.2203 9.54571 12.5 9.54571ZM21.8703 12.6699C21.8703 11.3762 21.882 10.0942 21.8094 8.80275C21.7367 7.30275 21.3945 5.9715 20.2977 4.87462C19.1984 3.7754 17.8695 3.43556 16.3695 3.3629C15.0758 3.29025 13.7937 3.30197 12.5023 3.30197C11.2086 3.30197 9.92656 3.29025 8.63515 3.3629C7.13515 3.43556 5.8039 3.77775 4.70702 4.87462C3.6078 5.97384 3.26796 7.30275 3.1953 8.80275C3.12265 10.0965 3.13436 11.3785 3.13436 12.6699C3.13436 13.9613 3.12265 15.2457 3.1953 16.5371C3.26796 18.0371 3.61015 19.3684 4.70702 20.4652C5.80624 21.5645 7.13515 21.9043 8.63515 21.977C9.9289 22.0496 11.2109 22.0379 12.5023 22.0379C13.7961 22.0379 15.0781 22.0496 16.3695 21.977C17.8695 21.9043 19.2008 21.5621 20.2977 20.4652C21.3969 19.366 21.7367 18.0371 21.8094 16.5371C21.8844 15.2457 21.8703 13.9637 21.8703 12.6699ZM12.5 17.477C9.83984 17.477 7.69296 15.3301 7.69296 12.6699C7.69296 10.0098 9.83984 7.8629 12.5 7.8629C15.1602 7.8629 17.307 10.0098 17.307 12.6699C17.307 15.3301 15.1602 17.477 12.5 17.477ZM17.5039 8.78868C16.8828 8.78868 16.3812 8.28712 16.3812 7.66603C16.3812 7.04493 16.8828 6.54337 17.5039 6.54337C18.125 6.54337 18.6266 7.04493 18.6266 7.66603C18.6267 7.81351 18.5978 7.95958 18.5415 8.09587C18.4851 8.23216 18.4024 8.35599 18.2982 8.46028C18.1939 8.56456 18.07 8.64725 17.9337 8.7036C17.7975 8.75996 17.6514 8.78887 17.5039 8.78868Z" fill="white"/>
</svg>
