<svg width="32" height="33" viewBox="0 0 32 33" fill="none" xmlns="http://www.w3.org/2000/svg">
<circle cx="16" cy="16.6694" r="16" fill="#1FCE1B"/>
<path d="M22.8 12.3694C20.4 8.66943 15.5 7.56943 11.7 9.86943C7.99999 12.1694 6.79999 17.1694 9.19999 20.8694L9.39999 21.1694L8.59999 24.1694L11.6 23.3694L11.9 23.5694C13.2 24.2694 14.6 24.6694 16 24.6694C17.5 24.6694 19 24.2694 20.3 23.4694C24 21.0694 25.1 16.1694 22.8 12.3694ZM20.7 20.0694C20.3 20.6694 19.8 21.0694 19.1 21.1694C18.7 21.1694 18.2 21.3694 16.2 20.5694C14.5 19.7694 13.1 18.4694 12.1 16.9694C11.5 16.2694 11.2 15.3694 11.1 14.4694C11.1 13.6694 11.4 12.9694 11.9 12.4694C12.1 12.2694 12.3 12.1694 12.5 12.1694H13C13.2 12.1694 13.4 12.1694 13.5 12.5694C13.7 13.0694 14.2 14.2694 14.2 14.3694C14.3 14.4694 14.3 14.6694 14.2 14.7694C14.3 14.9694 14.2 15.1694 14.1 15.2694C14 15.3694 13.9 15.5694 13.8 15.6694C13.6 15.7694 13.5 15.9694 13.6 16.1694C14 16.7694 14.5 17.3694 15 17.8694C15.6 18.3694 16.2 18.7694 16.9 19.0694C17.1 19.1694 17.3 19.1694 17.4 18.9694C17.5 18.7694 18 18.2694 18.2 18.0694C18.4 17.8694 18.5 17.8694 18.7 17.9694L20.3 18.7694C20.5 18.8694 20.7 18.9694 20.8 19.0694C20.9 19.3694 20.9 19.7694 20.7 20.0694Z" fill="white"/>
</svg>
