<svg width="93" height="17" viewBox="0 0 93 17" fill="none" xmlns="http://www.w3.org/2000/svg">
<path d="M8.85999 0.169434L10.6561 5.6973H16.4684L11.7662 9.11371L13.5623 14.6416L8.85999 11.2252L4.1577 14.6416L5.95382 9.11371L1.25153 5.6973H7.06387L8.85999 0.169434Z" fill="#F5E01E"/>
<path d="M27.86 0.169434L29.6561 5.6973H35.4684L30.7662 9.11371L32.5623 14.6416L27.86 11.2252L23.1577 14.6416L24.9538 9.11371L20.2515 5.6973H26.0639L27.86 0.169434Z" fill="#F5E01E"/>
<path d="M46.86 0.169434L48.6561 5.6973H54.4684L49.7662 9.11371L51.5623 14.6416L46.86 11.2252L42.1577 14.6416L43.9538 9.11371L39.2515 5.6973H45.0639L46.86 0.169434Z" fill="#F5E01E"/>
<path d="M65.86 0.169434L67.6561 5.6973H73.4684L68.7662 9.11371L70.5623 14.6416L65.86 11.2252L61.1577 14.6416L62.9538 9.11371L58.2515 5.6973H64.0639L65.86 0.169434Z" fill="#F5E01E"/>
<path d="M84.86 0.169434L86.6561 5.6973H92.4684L87.7662 9.11371L89.5623 14.6416L84.86 11.2252L80.1577 14.6416L81.9538 9.11371L77.2515 5.6973H83.0639L84.86 0.169434Z" fill="#F5E01E"/>
</svg>
