<svg width="16" height="17" viewBox="0 0 16 17" fill="none" xmlns="http://www.w3.org/2000/svg">
<g clip-path="url(#clip0_103_18)">
<path d="M15.4576 13.3788L13.0839 11.0051C12.4176 10.3388 11.3373 10.3388 10.6709 11.0051L10.2995 11.3765C10.0007 11.6746 9.79301 12.0518 9.70088 12.4638C8.89629 12.4788 7.98638 12.342 7.20813 11.8371C6.73011 11.4818 6.27871 11.092 5.85754 10.6708C5.50175 10.3152 5.16814 9.93813 4.8586 9.54163C4.25207 8.72676 4.09201 7.73785 4.1082 6.87113C4.52018 6.77902 4.89736 6.57135 5.19551 6.27248L5.56688 5.9011C6.2332 5.23479 6.2332 4.15448 5.56688 3.48813L3.19317 1.11441C2.74895 0.670195 2.02873 0.670195 1.58454 1.11441L1.17701 1.52204C0.654572 2.04448 0.387134 2.72491 0.373228 3.40957C0.239447 4.8541 0.516103 6.44429 1.17332 8.00826C1.60726 9.04088 2.20304 10.0492 2.92863 10.9864C2.93779 10.9986 2.94648 11.011 2.95576 11.0232L2.95682 11.0224C3.32728 11.4977 3.72669 11.9496 4.15279 12.3757C4.59316 12.8164 5.06105 13.2287 5.55363 13.6101L5.54888 13.6164C5.63095 13.6786 5.71466 13.7387 5.79992 13.7964C7.87057 15.328 10.211 16.1885 12.3889 16.1884C12.5161 16.1883 12.6429 16.1847 12.769 16.1788C13.5803 16.2785 14.4273 16.0178 15.05 15.3951L15.4576 14.9875C15.9018 14.5433 15.9018 13.823 15.4576 13.3788Z" fill="#BAED29"/>
</g>
<defs>
<clipPath id="clip0_103_18">
<rect width="16" height="16" fill="white" transform="translate(0 0.5)"/>
</clipPath>
</defs>
</svg>
