<svg width="25" height="25" viewBox="0 0 25 25" fill="none" xmlns="http://www.w3.org/2000/svg">
<path d="M22.25 6.63009C21.5328 6.93946 20.7524 7.16212 19.9484 7.24884C20.7831 6.75299 21.4081 5.96962 21.7063 5.04571C20.9231 5.51163 20.0651 5.83833 19.1703 6.01134C18.7964 5.61156 18.3441 5.29307 17.8417 5.07573C17.3392 4.85839 16.7974 4.74685 16.25 4.74806C14.0352 4.74806 12.2539 6.54337 12.2539 8.7465C12.2539 9.05587 12.2914 9.36525 12.3524 9.6629C9.03596 9.48947 6.07815 7.90509 4.11174 5.47931C3.75344 6.0913 3.56568 6.78812 3.56799 7.49728C3.56799 8.88478 4.27346 10.1082 5.34924 10.8277C4.71527 10.8028 4.09614 10.6285 3.54221 10.3192V10.3684C3.54221 12.3113 4.91565 13.9215 6.74612 14.2918C6.40242 14.3811 6.04887 14.4268 5.69377 14.4278C5.43362 14.4278 5.18752 14.402 4.93909 14.3668C5.44533 15.9512 6.91955 17.102 8.67502 17.1395C7.30158 18.2153 5.58127 18.8481 3.7133 18.8481C3.37815 18.8481 3.06877 18.8363 2.74768 18.7988C4.51955 19.9356 6.6219 20.5918 8.88596 20.5918C16.236 20.5918 20.2578 14.5028 20.2578 9.21759C20.2578 9.04415 20.2578 8.87072 20.2461 8.69728C21.0242 8.12775 21.7063 7.42228 22.25 6.63009Z" fill="white"/>
</svg>
