<svg width="25" height="25" viewBox="0 0 25 25" fill="none" xmlns="http://www.w3.org/2000/svg">
<path d="M22.5617 7.60977C22.4422 7.16454 22.2078 6.75853 21.882 6.43235C21.5563 6.10617 21.1505 5.87128 20.7055 5.75117C19.0672 5.31055 12.5 5.31055 12.5 5.31055C12.5 5.31055 5.93281 5.31055 4.29453 5.74883C3.84927 5.86854 3.44334 6.10331 3.11751 6.42955C2.79169 6.75578 2.55744 7.16201 2.43828 7.60742C2 9.24805 2 12.6699 2 12.6699C2 12.6699 2 16.0918 2.43828 17.7301C2.67969 18.6348 3.39219 19.3473 4.29453 19.5887C5.93281 20.0293 12.5 20.0293 12.5 20.0293C12.5 20.0293 19.0672 20.0293 20.7055 19.5887C21.6102 19.3473 22.3203 18.6348 22.5617 17.7301C23 16.0918 23 12.6699 23 12.6699C23 12.6699 23 9.24805 22.5617 7.60977ZM10.4141 15.8105V9.5293L15.8516 12.6465L10.4141 15.8105Z" fill="white"/>
</svg>
